<?xml version="1.0" encoding="UTF-8"?>
<svg width="1200pt" height="1200pt" version="1.1" viewBox="0 0 1200 1200" xmlns="http://www.w3.org/2000/svg">
 <path d="m978.94 279.37h-757.69c-25.5 0-46.312 20.625-46.312 46.312v548.63c0 25.5 20.625 46.312 46.312 46.312h757.5c25.5 0 46.312-20.625 46.312-46.312v-548.63c0-25.312-20.625-46.312-46.125-46.312zm-55.312 62.625-311.26 266.06c-4.6875 3.9375-11.438 3.9375-16.125 0l-316.69-266.26h643.87zm15.188 516h-677.63c-12.938 0-23.438-10.5-23.438-23.438v-446.06l346.5 291.56s0.75 0.5625 0.9375 0.75c0.375 0.375 0.75 0.5625 1.125 0.9375 0.5625 0.375 1.125 0.9375 1.875 1.125 0 0 0.5625 0.375 0.75 0.5625 0.9375 0.5625 1.6875 1.125 2.8125 1.3125 0 0 0.5625 0 0.75 0.375 0.75 0.375 1.3125 0.5625 2.25 0.9375 0.375 0 0.5625 0 0.9375 0.375 0.75 0 1.3125 0.375 2.0625 0.5625h0.9375c0.75 0 1.5 0.375 2.25 0.375h8.25c0.75 0 1.5 0 2.25-0.375h0.9375c0.75 0 1.3125-0.375 2.0625-0.5625 0.375 0 0.5625 0 0.9375-0.375 0.75 0 1.5-0.5625 2.25-0.9375 0 0 0.5625 0 0.75-0.375 0.9375-0.375 1.875-0.9375 2.8125-1.3125 0 0 0.5625-0.375 0.75-0.5625 0.75-0.375 1.125-0.9375 1.875-1.125 0.375 0 0.75-0.5625 1.125-0.9375 0.375 0 0.75-0.5625 0.9375-0.75l337.69-288.74v443.26c0 12.938-10.5 23.438-23.438 23.438z"/>
</svg>
