<?xml version="1.0" standalone="no"?>
<!DOCTYPE svg PUBLIC "-//W3C//DTD SVG 20010904//EN"
 "http://www.w3.org/TR/2001/REC-SVG-20010904/DTD/svg10.dtd">
<svg version="1.0" xmlns="http://www.w3.org/2000/svg"
 width="460.000000pt" height="460.000000pt" viewBox="0 0 460.000000 460.000000"
 preserveAspectRatio="xMidYMid meet">
<metadata>
Created by potrace 1.11, written by Peter Selinger 2001-2013
</metadata>
<g transform="translate(0.000000,460.000000) scale(0.100000,-0.100000)"
fill="#000000" stroke="none">
<path d="M836 4548 c-3 -29 -15 -143 -26 -253 -11 -110 -29 -274 -40 -365 -11
-91 -27 -262 -35 -380 -8 -118 -26 -341 -40 -495 -25 -279 -29 -342 -21 -334
6 6 52 445 81 779 14 157 34 355 45 440 17 134 70 631 70 653 0 4 -6 7 -14 7
-10 0 -16 -16 -20 -52z"/>
<path d="M1159 4558 c-4 -141 -10 -221 -19 -238 -16 -29 -13 -45 6 -30 27 23
34 48 39 132 3 46 7 104 11 131 5 43 4 47 -15 47 -18 0 -21 -6 -22 -42z"/>
<path d="M2012 4566 c-29 -8 -55 -16 -58 -19 -3 -3 -17 -2 -30 3 -27 11 -101
-9 -96 -25 4 -13 -32 -23 -90 -24 -27 -1 -48 -5 -48 -9 0 -5 -11 -14 -25 -20
-17 -8 -25 -8 -25 -1 0 6 -9 4 -21 -5 -12 -8 -28 -12 -35 -9 -8 3 -20 0 -28
-6 -8 -7 -40 -16 -71 -21 -40 -7 -63 -16 -79 -34 -11 -13 -38 -31 -59 -40 -22
-9 -45 -29 -58 -51 -12 -19 -24 -35 -28 -35 -15 0 -112 -105 -117 -127 -4 -14
2 -40 14 -65 12 -23 19 -45 16 -50 -3 -4 2 -5 11 -1 15 5 15 3 4 -15 -7 -11
-16 -19 -20 -16 -4 2 -9 -1 -11 -7 -2 -7 -12 -7 -32 0 -15 6 -31 9 -35 6 -12
-7 -81 60 -81 79 0 9 5 16 11 16 6 0 8 9 4 20 -5 15 3 31 25 56 17 20 29 38
26 41 -7 8 -38 -17 -80 -65 -37 -40 -38 -45 -33 -93 l6 -52 -20 19 c-16 15
-20 27 -16 56 3 22 1 36 -4 32 -5 -3 -9 -21 -9 -40 0 -19 -4 -34 -10 -34 -5 0
-10 4 -10 9 0 11 -29 23 -40 16 -14 -9 0 -34 21 -40 30 -10 49 -58 49 -124 0
-50 4 -63 20 -73 26 -17 25 -27 -6 -73 -14 -21 -23 -43 -20 -50 2 -7 -2 -34
-10 -60 -10 -34 -11 -52 -3 -67 6 -10 8 -29 6 -41 -3 -19 -6 -16 -22 18 -10
23 -20 34 -23 26 -4 -12 19 -74 54 -144 8 -16 14 -43 14 -60 0 -17 6 -38 14
-46 8 -9 26 -45 40 -81 15 -35 38 -81 52 -102 25 -35 26 -40 14 -88 -7 -27
-14 -50 -16 -50 -2 0 -1 28 2 63 3 40 2 57 -4 47 -5 -8 -12 -53 -16 -100 -19
-234 -33 -349 -44 -363 -8 -9 -56 -39 -109 -68 -52 -29 -125 -78 -162 -109
-37 -31 -119 -95 -184 -143 -64 -48 -161 -131 -215 -185 -81 -81 -106 -114
-147 -192 l-49 -95 -4 -230 c-2 -126 -4 -258 -4 -293 l-1 -62 -53 0 -54 0 0
-635 0 -634 750 -1 749 0 26 54 c64 136 72 139 349 134 380 -5 460 -2 641 26
94 14 186 29 205 32 64 9 128 35 166 65 21 16 41 26 46 21 14 -14 12 -193 -2
-202 -7 -4 -9 -13 -6 -19 4 -6 0 -14 -8 -17 -9 -3 -16 -13 -16 -21 0 -8 -4
-11 -10 -8 -5 3 -7 0 -4 -8 3 -8 -2 -22 -11 -31 -14 -14 -14 -17 -2 -22 8 -3
144 -3 303 -1 159 3 307 5 329 5 22 1 144 -2 272 -4 l231 -5 12 37 c16 47 141
172 215 213 29 16 55 37 58 45 7 18 75 20 225 8 80 -7 82 -7 82 15 0 12 -7 26
-16 31 -14 8 -14 10 0 25 14 14 16 56 16 331 0 309 0 316 -20 316 -11 0 -169
9 -352 20 -183 10 -439 24 -568 30 -317 15 -702 38 -707 43 -2 2 1 15 5 28 5
13 13 56 17 96 6 59 3 89 -18 175 -14 57 -30 139 -36 183 -7 49 -31 133 -62
218 -48 128 -56 142 -118 209 -78 84 -194 174 -315 243 -48 28 -135 78 -193
113 -58 35 -122 72 -143 82 -33 17 -40 26 -49 70 -19 89 -15 105 40 173 52 64
89 139 118 242 17 58 29 91 86 235 15 36 32 85 39 110 9 34 18 46 36 50 34 8
46 56 34 130 -5 32 -7 57 -4 55 11 -7 37 21 48 54 16 46 15 90 -3 140 -14 41
-14 42 9 53 29 12 37 38 23 64 -19 33 -33 44 -45 32 -7 -7 -10 -6 -9 3 2 16
-40 154 -56 187 -8 16 -8 25 0 33 16 16 47 -16 62 -63 17 -51 31 -57 31 -14 0
31 -9 45 -64 100 -47 48 -66 61 -70 50 -3 -8 -2 -12 3 -9 14 8 25 -35 12 -48
-7 -7 -13 -1 -21 19 -7 16 -23 52 -38 81 -14 28 -27 60 -28 69 -7 48 -18 69
-52 100 -35 32 -37 37 -35 86 3 63 -4 98 -18 98 -6 0 -8 -9 -4 -21 9 -27 -3
-109 -16 -109 -6 0 -21 12 -34 28 -22 25 -24 25 -25 7 0 -11 7 -31 16 -43 9
-13 14 -26 11 -28 -10 -10 -46 16 -53 38 -10 30 -11 87 -1 81 4 -2 7 1 7 6 0
6 14 11 30 11 20 0 30 5 30 15 0 8 -7 15 -16 15 -8 0 -12 5 -9 10 7 12 5 12
-63 -4z m-277 -116 c4 -11 11 -17 17 -14 6 4 6 -1 -1 -14 -14 -26 -33 -39 -24
-16 4 10 0 20 -10 26 -10 5 -17 16 -17 23 0 22 28 18 35 -5z m145 -40 c8 -16
8 -20 -3 -20 -18 0 -39 24 -30 33 11 12 22 8 33 -13z m-299 -22 c1 -7 0 -25
-1 -41 -3 -44 -90 -198 -90 -159 0 9 -8 7 -27 -5 l-26 -18 17 28 c10 15 14 27
8 27 -6 0 -13 -4 -17 -9 -10 -17 -103 -42 -142 -39 l-38 3 30 28 c16 15 40 27
53 27 33 0 111 21 118 31 3 6 -13 7 -38 3 -58 -9 -43 4 36 30 l64 22 -9 -24
c-12 -32 -12 -59 1 -46 10 10 50 120 50 137 0 6 -12 -1 -27 -15 -28 -25 -44
-33 -98 -49 -26 -7 -28 -7 -12 5 21 16 22 26 2 26 -18 0 -19 14 -2 28 11 9 36
13 125 20 12 1 22 -4 23 -10z m108 -20 c-12 -18 -34 -45 -48 -59 -14 -14 -31
-34 -37 -45 -16 -27 -23 -15 -12 23 6 22 26 47 59 73 28 22 53 40 56 40 2 0
-6 -15 -18 -32z m139 -49 c-10 -6 -18 -16 -18 -22 0 -14 -38 -16 -58 -3 -15 9
-15 9 -30 -19 -11 -19 -11 -19 -12 3 0 28 35 78 45 62 9 -15 55 -8 55 9 0 13
3 12 18 -2 16 -17 16 -19 0 -28z m415 -132 c-4 -6 -12 -3 -20 8 -20 28 -16 41
7 20 11 -10 17 -22 13 -28z m-503 -17 c0 -5 7 -10 15 -10 24 0 36 -33 18 -52
-13 -15 -11 -18 31 -36 46 -21 65 -53 53 -87 -13 -31 -157 4 -157 39 0 21 35
47 55 40 29 -12 0 33 -34 51 -39 20 -47 43 -18 55 30 12 37 12 37 0z m169 -64
c11 -7 11 -10 -3 -18 -18 -10 -21 -34 -6 -43 5 -3 22 1 37 8 27 14 134 33 160
28 6 -1 14 3 18 9 4 6 17 2 35 -11 15 -12 33 -19 38 -15 6 3 23 -19 38 -49 22
-45 27 -69 26 -126 0 -49 6 -84 19 -113 31 -68 29 -71 -59 -74 -104 -4 -117
-22 -91 -129 10 -39 18 -48 53 -64 23 -10 53 -19 67 -19 33 0 54 -24 69 -79
15 -56 7 -84 -35 -127 l-35 -34 -30 47 c-17 27 -30 59 -29 73 3 63 2 63 -43
55 -51 -9 -157 -17 -213 -17 l-40 0 26 -22 c15 -13 44 -26 66 -29 32 -5 48
-17 82 -57 42 -50 46 -76 11 -65 -10 3 -21 2 -24 -3 -3 -5 -32 -5 -68 0 -75
11 -174 2 -205 -18 -15 -9 -23 -24 -23 -42 0 -27 5 -30 98 -59 53 -17 120 -37
147 -43 28 -7 58 -20 67 -28 16 -13 16 -16 1 -30 -11 -12 -31 -16 -69 -14 -66
3 -71 -13 -9 -29 24 -6 50 -17 56 -25 18 -22 45 -17 57 11 12 26 27 29 50 7
12 -10 7 -26 -27 -96 -37 -76 -44 -84 -73 -89 -18 -2 -40 -1 -49 4 -16 8 -53
-23 -41 -36 10 -9 -30 7 -55 23 -12 7 -27 11 -32 8 -5 -4 -12 -2 -16 4 -4 6
-10 8 -15 5 -5 -3 -15 3 -22 14 -7 10 -22 20 -33 23 -12 2 -19 10 -17 21 4 22
-14 22 -22 0 -6 -15 -9 -15 -16 -3 -5 8 -4 22 2 33 5 10 7 21 4 25 -3 3 -6 -1
-6 -9 -1 -8 -7 -3 -15 11 -19 32 -19 44 0 36 11 -4 15 2 15 22 0 15 5 44 11
66 8 27 8 41 0 49 -8 8 -11 5 -11 -12 0 -30 -77 -108 -115 -117 l-30 -7 20 23
20 23 -20 -8 c-11 -4 -28 -8 -37 -9 -9 0 -14 -4 -12 -8 6 -10 -26 -6 -44 5 -7
5 -10 12 -8 16 4 6 -12 10 -56 12 -10 0 -17 4 -15 8 1 4 -11 21 -28 38 -42 42
-79 156 -73 223 5 49 4 50 -13 34 -42 -38 -13 -303 45 -408 11 -21 27 -50 34
-65 25 -50 30 -56 44 -54 13 3 41 -51 31 -61 -7 -6 -171 109 -215 152 -21 20
-42 50 -48 66 -5 17 -9 89 -8 159 l2 128 30 16 c30 16 55 40 56 56 0 4 -14 7
-30 7 -39 0 -82 22 -109 56 -26 33 -27 50 -2 63 16 9 18 8 13 -11 -4 -18 -2
-20 14 -14 10 5 36 10 57 13 31 5 37 9 37 30 0 18 9 28 35 39 23 9 37 23 41
41 4 15 15 41 25 58 9 16 20 51 23 76 5 30 15 54 31 69 l25 23 1 -34 0 -34 13
40 c7 22 20 55 30 73 18 34 16 40 -6 20 -8 -7 -25 -22 -38 -33 -23 -19 -23
-18 3 15 26 34 28 35 96 35 77 0 77 0 22 -69 -17 -21 -31 -50 -31 -65 1 -24 1
-25 12 -6 6 11 14 22 18 25 3 3 30 34 59 70 30 35 64 73 77 83 18 14 24 28 24
58 0 37 12 51 25 28 4 -5 17 -9 28 -8 71 5 84 -11 47 -58 -11 -14 -17 -30 -14
-35 3 -5 17 5 30 23 29 39 42 49 70 49 11 0 29 7 40 15 18 14 16 15 -21 13
l-40 -3 -9 70 c-6 43 -15 75 -25 83 -14 10 -12 12 14 7 26 -5 27 -4 8 4 -13 6
-23 13 -23 16 0 7 32 1 49 -9z m436 -14 c-31 -25 -37 -49 -16 -64 27 -20 33
-36 21 -58 -23 -44 -55 -16 -61 54 -3 32 1 42 26 62 34 27 61 33 30 6z m-930
-12 c18 -7 18 -9 3 -15 -9 -3 -31 -5 -50 -3 l-33 4 25 11 c30 14 30 14 55 3z
m305 0 c-8 -5 -25 -10 -37 -10 -14 0 -23 -6 -23 -16 0 -8 -4 -12 -10 -9 -18
11 -32 -6 -18 -23 12 -14 10 -14 -10 -3 -30 16 -25 30 18 53 36 19 109 27 80
8z m-430 -84 c0 -2 -7 -7 -16 -10 -8 -3 -12 -2 -9 4 6 10 25 14 25 6z m93 -8
c-13 -6 -23 -15 -23 -20 0 -4 -6 -8 -12 -8 -7 1 -2 10 11 20 13 11 28 20 35
19 6 0 1 -5 -11 -11z m87 -19 c0 -5 6 -7 13 -3 6 4 5 -1 -5 -11 -9 -9 -21 -14
-27 -11 -16 10 -13 36 4 36 8 0 15 -5 15 -11z m-480 -28 c11 -21 -2 -71 -19
-71 -11 0 -22 55 -15 75 8 21 21 19 34 -4z m648 -6 c22 -28 20 -48 -7 -84 -14
-19 -24 -22 -45 -17 -35 9 -42 28 -27 76 10 34 20 43 53 49 4 0 15 -10 26 -24z
m-88 1 c0 -3 -4 -8 -10 -11 -5 -3 -10 -1 -10 4 0 6 5 11 10 11 6 0 10 -2 10
-4z m-339 -47 c-9 -22 -10 -22 -10 -3 -1 11 2 24 6 27 12 12 14 0 4 -24z m274
-19 c-3 -5 -13 -10 -21 -10 -8 0 -12 5 -9 10 3 6 13 10 21 10 8 0 12 -4 9 -10z
m832 -6 c1 -5 -2 -16 -7 -24 -12 -20 -33 0 -24 24 7 17 25 17 31 0z m-1316
-41 c-10 -17 -10 -16 -11 3 0 23 13 41 18 25 2 -6 -1 -18 -7 -28z m394 17 c3
-5 -3 -10 -14 -10 -11 0 -23 5 -26 10 -3 6 3 10 14 10 11 0 23 -4 26 -10z
m1039 -22 c-4 -7 -16 -19 -26 -26 -10 -7 -18 -21 -18 -31 0 -15 -41 -61 -55
-61 -3 0 -5 23 -5 50 0 29 5 50 11 50 5 0 7 5 4 10 -3 6 -2 10 4 10 5 0 11
-15 14 -32 l3 -33 13 32 c7 19 21 34 34 36 12 2 23 5 25 6 2 0 0 -5 -4 -11z
m-1414 -166 c0 -34 -1 -35 -16 -20 -11 11 -15 25 -10 43 9 36 26 22 26 -23z
m1394 -27 c7 -19 -13 -77 -26 -73 -11 4 -11 8 -2 56 7 34 18 42 28 17z m-1473
-162 c-10 -17 -10 -16 -11 3 0 23 13 41 18 25 2 -6 -1 -18 -7 -28z m1302 -274
c-3 -10 -9 -16 -14 -13 -11 6 -12 38 -2 47 10 11 21 -13 16 -34z m-219 -6 c19
-9 38 -23 41 -31 4 -11 -4 -13 -42 -8 -27 3 -76 9 -110 12 -35 4 -63 10 -63
15 0 31 118 39 174 12z m-649 -162 c-6 -5 -25 10 -25 20 0 5 6 4 14 -3 8 -7
12 -15 11 -17z m-208 -76 c-2 -5 -9 -10 -15 -9 -7 1 -27 2 -44 3 -25 1 -29 4
-18 11 19 12 81 8 77 -5z m-93 -20 c11 -8 30 -15 43 -15 21 0 22 -2 17 -67 -8
-103 -10 -106 -59 -132 -25 -13 -47 -22 -48 -20 -6 7 16 249 22 249 3 0 15 -7
25 -15z m119 -39 c4 -10 1 -13 -9 -9 -15 6 -19 23 -5 23 5 0 11 -7 14 -14z
m-23 -160 c0 -2 -8 -10 -17 -17 -16 -13 -17 -12 -4 4 13 16 21 21 21 13z
m-260 -180 c0 -2 -7 -7 -16 -10 -8 -3 -12 -2 -9 4 6 10 25 14 25 6z m-168
-118 c-3 -28 5 -43 47 -93 28 -32 51 -64 51 -70 0 -22 -17 -32 -55 -33 -22 -1
-63 -4 -91 -8 -47 -6 -54 -4 -85 23 -19 17 -41 34 -50 39 -14 8 -12 13 15 34
16 14 27 18 22 10 -4 -8 2 -4 15 10 50 55 67 64 86 49 15 -11 16 -11 6 1 -11
11 -8 19 14 42 15 15 27 28 28 28 0 0 -1 -15 -3 -32z m662 -167 c-2 -3 -12 3
-22 13 -16 17 -16 18 5 5 12 -7 20 -15 17 -18z m392 -39 c-12 -11 -16 6 -9 39
l8 34 3 -33 c2 -19 1 -36 -2 -40z m816 -125 c78 -60 154 -142 139 -152 -5 -3
-17 7 -26 22 -9 16 -32 39 -51 51 -21 13 -32 27 -28 34 5 8 1 9 -12 4 -10 -4
-15 -4 -12 0 14 13 -86 96 -107 88 -7 -3 -16 -1 -19 4 -17 27 51 -3 116 -51z
m-2221 36 c12 -16 12 -17 -2 -6 -9 7 -20 9 -24 5 -5 -4 -5 -1 -1 6 9 16 11 15
27 -5z m-126 -92 c-3 -5 1 -15 8 -23 28 -29 35 -75 33 -223 -2 -165 -5 -174
-67 -240 -32 -33 -39 -49 -45 -95 -7 -64 -29 -116 -51 -124 -13 -5 -14 -1 -8
26 5 18 9 133 10 255 1 190 4 228 20 262 10 22 22 38 28 34 6 -3 7 -1 3 5 -9
14 14 63 27 55 6 -3 7 -1 3 5 -4 6 3 25 15 42 21 28 38 42 24 21z m2509 -109
c3 -5 -1 -9 -9 -9 -8 0 -12 4 -9 9 3 4 7 8 9 8 2 0 6 -4 9 -8z m-1960 -18 c3
-8 2 -12 -4 -9 -6 3 -10 10 -10 16 0 14 7 11 14 -7z m3446 -959 c14 -8 19 -14
12 -15 -7 0 -11 -4 -8 -9 4 -5 3 -16 0 -25 -5 -12 -10 -14 -19 -6 -9 7 -20 4
-39 -11 -15 -12 -25 -24 -22 -26 6 -6 -19 -33 -31 -33 -10 0 -126 -71 -134
-83 -3 -5 -9 -8 -13 -8 -13 3 -56 -12 -56 -18 0 -4 -26 -18 -57 -31 -32 -13
-74 -35 -93 -50 -19 -15 -43 -30 -53 -33 -26 -10 -41 1 -26 19 6 7 16 11 22 7
6 -3 7 -1 3 5 -4 7 16 26 51 49 32 21 83 58 113 83 101 84 166 129 234 165 75
39 81 40 116 20z m198 -1 c34 -23 27 -47 -19 -66 -34 -15 -41 -15 -46 -3 -3 8
-9 12 -15 9 -10 -6 -48 23 -48 37 0 36 87 52 128 23z m-218 -58 c0 -2 -8 -10
-17 -17 -16 -13 -17 -12 -4 4 13 16 21 21 21 13z m-882 -132 c17 -12 20 -19
12 -29 -8 -10 -8 -15 1 -21 8 -4 9 -3 5 4 -4 7 -1 12 8 12 8 0 18 -5 21 -10
10 -16 -19 -22 -49 -10 -28 10 -115 -4 -102 -17 3 -4 -5 -26 -19 -50 -14 -23
-23 -43 -21 -43 3 0 -7 -21 -24 -47 -31 -52 -65 -79 -75 -63 -4 6 -10 8 -15 5
-5 -3 -13 2 -19 12 -19 37 34 133 73 133 17 0 61 51 61 70 0 8 6 14 13 12 8
-1 11 2 7 8 -3 5 -1 10 5 10 6 0 9 4 5 9 -17 28 77 41 113 15z m277 -224 c-3
-5 -13 -10 -21 -10 -8 0 -12 -4 -9 -10 4 -6 -1 -7 -11 -3 -16 6 -15 7 2 20 21
15 48 18 39 3z m-147 -41 c44 -14 40 -25 -10 -32 -39 -5 -46 -3 -73 25 l-30
30 40 -6 c22 -4 55 -12 73 -17z m663 -119 c55 -15 37 -25 -56 -33 -38 -3 -65
-3 -58 0 7 2 9 11 6 19 -5 15 33 36 54 29 6 -2 31 -9 54 -15z m184 -30 c-28
-12 -47 -12 -40 0 3 6 18 10 33 9 24 0 25 -1 7 -9z m-80 -10 c-3 -5 -12 -10
-18 -10 -7 0 -6 4 3 10 19 12 23 12 15 0z m-564 -12 c0 -7 2 -25 3 -40 1 -15
0 -25 -3 -23 -2 2 -12 0 -21 -5 -29 -16 -102 -22 -94 -8 5 8 2 9 -10 5 -24 -9
-40 33 -19 50 9 7 20 10 24 7 5 -3 9 0 9 6 0 6 5 8 10 5 6 -3 10 -1 10 4 0 16
90 14 91 -1z m155 -43 c4 -8 10 -12 15 -9 14 8 11 -24 -5 -54 -37 -71 -133
-117 -165 -78 -11 14 -9 21 14 53 63 85 127 125 141 88z m-3566 -149 c0 -11
-19 -15 -25 -6 -3 5 1 10 9 10 9 0 16 -2 16 -4z"/>
<path d="M1801 4033 c0 -4 4 -17 9 -28 8 -19 9 -19 9 2 1 12 -3 25 -9 28 -5 3
-10 3 -9 -2z"/>
<path d="M1731 3824 c0 -17 -10 -39 -21 -49 -25 -23 -25 -35 0 -35 21 0 35 48
27 91 -4 20 -5 19 -6 -7z"/>
<path d="M1820 3755 c-10 -12 -10 -19 -2 -27 20 -20 14 -25 -39 -32 -28 -4
-78 -14 -111 -22 -33 -9 -69 -14 -79 -11 -10 3 -21 2 -24 -3 -7 -12 67 -21
117 -14 30 4 74 -1 136 -16 50 -12 103 -19 117 -16 13 3 41 23 62 44 21 21 50
43 66 50 20 9 27 18 27 39 l-1 28 -20 -27 c-25 -34 -43 -35 -94 -3 -48 29
-134 35 -155 10z"/>
<path d="M1713 3607 c6 -18 85 -40 123 -33 48 9 43 26 -8 26 -24 0 -60 4 -81
9 -27 6 -37 6 -34 -2z"/>
<path d="M1475 3530 c-52 -26 -61 -28 -75 -15 -9 8 -21 15 -27 15 -18 0 -2
-40 23 -57 22 -14 26 -13 56 6 34 20 88 68 88 76 0 6 5 8 -65 -25z"/>
<path d="M1828 3423 c-20 -21 -54 -55 -76 -76 -36 -34 -62 -90 -49 -103 8 -8
59 21 84 48 24 25 88 156 81 164 -3 2 -21 -13 -40 -33z"/>
<path d="M1290 3345 c0 -8 4 -15 10 -15 5 0 7 7 4 15 -4 8 -8 15 -10 15 -2 0
-4 -7 -4 -15z"/>
<path d="M1780 2902 c0 -5 11 -15 25 -22 21 -11 38 -37 40 -62 0 -4 7 -13 15
-20 12 -11 12 -11 1 5 -8 10 -9 17 -3 17 6 0 16 -8 21 -17 6 -10 11 -15 11
-10 0 4 11 0 25 -9 20 -13 25 -14 25 -2 0 7 -13 22 -30 31 -24 14 -41 33 -74
83 -5 7 -56 12 -56 6z"/>
<path d="M1606 3894 c-4 -9 -4 -19 -1 -22 2 -3 7 3 11 12 4 9 4 19 1 22 -2 3
-7 -3 -11 -12z"/>
<path d="M623 2335 c0 -8 4 -12 9 -9 5 3 6 10 3 15 -9 13 -12 11 -12 -6z"/>
<path d="M1200 4340 c0 -16 -4 -30 -9 -30 -15 0 -41 -30 -41 -46 0 -27 34 -14
77 31 46 49 57 73 24 55 -26 -13 -31 -13 -31 5 0 8 -4 15 -10 15 -5 0 -10 -13
-10 -30z"/>
<path d="M1120 4198 c0 -19 2 -20 10 -8 13 19 13 30 0 30 -5 0 -10 -10 -10
-22z"/>
<path d="M2375 4170 c20 -23 29 -21 19 4 -3 9 -13 16 -22 16 -13 0 -12 -3 3
-20z"/>
<path d="M1073 4043 c9 -9 23 -13 33 -9 22 8 12 19 -23 22 -24 3 -25 2 -10
-13z"/>
<path d="M896 3665 c-3 -9 -6 -29 -5 -43 1 -22 3 -19 10 12 10 40 6 60 -5 31z"/>
<path d="M3337 2725 c-26 -7 -60 -21 -75 -31 -15 -10 -30 -17 -34 -16 -5 1 -8
-7 -8 -18 0 -20 -14 -25 -65 -22 -11 0 -14 -2 -7 -5 9 -3 0 -16 -27 -39 -83
-72 -102 -165 -52 -269 34 -73 99 -130 186 -166 82 -33 216 -33 289 1 60 27
104 57 131 89 47 57 70 185 40 225 -8 11 -15 26 -15 34 0 8 -9 27 -21 43 -11
16 -17 33 -14 39 3 5 -1 10 -10 10 -9 0 -13 5 -10 10 3 6 -1 10 -9 10 -9 0
-15 4 -13 9 2 10 -49 61 -62 61 -5 0 -14 6 -20 14 -24 28 -135 40 -204 21z
m79 -159 c-5 -77 -24 -121 -43 -102 -12 12 -4 188 9 204 10 12 14 11 26 -5 10
-13 12 -38 8 -97z"/>
<path d="M4339 2096 c-2 -2 -44 -5 -94 -7 -144 -4 -199 -34 -282 -152 -83
-119 -4 -280 163 -335 88 -28 151 -28 239 3 59 20 78 33 122 82 62 68 79 125
63 199 -21 95 -46 125 -161 193 -38 22 -43 24 -50 17z m-64 -79 c4 -13 5 -48
3 -78 -3 -51 -5 -54 -30 -57 -30 -4 -31 -2 -29 63 3 78 42 128 56 72z"/>
<path d="M0 1562 c0 -5 7 -13 16 -16 25 -9 64 -7 64 4 0 6 -8 10 -17 10 -10 0
-28 3 -40 6 -13 4 -23 2 -23 -4z"/>
<path d="M3020 1203 c0 -19 25 -33 60 -33 19 0 50 -9 68 -20 47 -29 59 -25 22
7 -18 14 -51 30 -74 33 -22 4 -49 11 -58 15 -10 4 -18 3 -18 -2z"/>
<path d="M3930 1095 c36 -8 79 -14 95 -13 18 0 3 6 -35 14 -36 7 -78 13 -95
13 -18 -1 -3 -7 35 -14z"/>
<path d="M4078 1073 c12 -2 32 -2 45 0 12 2 2 4 -23 4 -25 0 -35 -2 -22 -4z"/>
</g>
</svg>
